# xmcd CD database file
#
# Track frame offsets:
#	151
#	22592
#	38389
#	56306
#	77203
#	99599
#	123743
#	138844
#	159000
#	175990
#	197824
#	220458
#	241801
#	266269
#	285316
#	312531
#
# Disc length: 4464 seconds
#
# Revision: 1
# Processed by: cddbd v1.5.2PL0 Copyright (c) Steve Scherf et al.
# Submitted via: CDex 1.60beta1-cs1
#
DISCID=cb116e10
DTITLE=絢香 - ayaka's History 2006-2009 DISK:1
DYEAR=2009
DGENRE=Pop
TTITLE0=I believe
TTITLE1=melody
TTITLE2=Real voice
TTITLE3=三日月
TTITLE4=WINDING ROAD - 絢香 × コブクロ
TTITLE5=Jewelry day
TTITLE6=CLAP and LOVE
TTITLE7=Why
TTITLE8=For today
TTITLE9=手をつなごう
TTITLE10=愛を歌おう
TTITLE11=おかえり
TTITLE12=あなたと - 絢香 × コブクロ
TTITLE13=夢を味方に
TTITLE14=恋焦がれて見た夢
TTITLE15=みんな空の下
EXTD=YEAR: 2009
EXTT0=
EXTT1=
EXTT2=
EXTT3=
EXTT4=
EXTT5=
EXTT6=
EXTT7=
EXTT8=
EXTT9=
EXTT10=
EXTT11=
EXTT12=
EXTT13=
EXTT14=
EXTT15=
PLAYORDER=
